# AST/ASF file generated using VICON BodyLanguage
# -----------------------------------------------
:version 1.10
:name VICON
:units
  mass 1.0
  length 0.45
  angle deg
:documentation
   .ast/.asf automatically generated from VICON data using
   VICON BodyBuilder and BodyLanguage model FoxedUp or BRILLIANT.MOD
:root
   order TX TY TZ RX RY RZ
   axis XYZ
   position 0 0 0  
   orientation 0 0 0 
:bonedata
  begin
     id 1 
     name lhipjoint
     direction 0.635376 -0.686425 0.353719 
     length 2.47244 
     axis 0 0 0  XYZ
  end
  begin
     id 2 
     name lfemur
     direction 0.34202 -0.939693 0  
     length 7.25268  
     axis 0 0 20  XYZ
    dof rx ry rz
    limits (-160.0 20.0)
           (-70.0 70.0)
           (-60.0 70.0)
  end
  begin
     id 3 
     name ltibia
     direction 0.34202 -0.939693 0   
     length 7.6767   
     axis 0 0 20   XYZ
    dof rx
    limits (-10.0 170.0)
  end
  begin
     id 4 
     name lfoot
     direction 0.0803374 -0.220725 0.972022   
     length 2.22945   
     axis -90 7.62852e-016 20   XYZ
    dof rx rz
    limits (-45.0 90.0)
           (-70.0 20.0)
  end
  begin
     id 5 
     name ltoes
     direction 1.53579e-011 -4.21994e-011 1   
     length 1.11848   
     axis -90 7.62852e-016 20   XYZ
    dof rx
    limits (-90.0 20.0)
  end
  begin
     id 6 
     name rhipjoint
     direction -0.664428 -0.664335 0.342336   
     length 2.55466  
     axis 0 0 0  XYZ 
  end
  begin
     id 7 
     name rfemur
     direction -0.34202 -0.939693 0   
     length 6.83172   
     axis 0 0 -20   XYZ
    dof rx ry rz
    limits (-160.0 20.0)
           (-70.0 70.0)
           (-70.0 60.0)
  end
  begin
     id 8 
     name rtibia
     direction -0.34202 -0.939693 0   
     length 7.62692   
     axis 0 0 -20   XYZ
    dof rx
    limits (-10.0 170.0)
 end
 begin
     id 9 
     name rfoot
     direction -0.0949276 -0.260811 0.960711   
     length 2.19684  
     axis -90 -7.62852e-016 -20   XYZ
    dof rx rz
    limits (-45.0 90.0)
           (-20.0 70.0)
  end
  begin
     id 10 
     name rtoes
     direction -1.53543e-011 -4.2183e-011 1   
     length 1.09848   
     axis -90 -7.62852e-016 -20   XYZ
    dof rx
    limits (-90.0 20.0)
  end
  begin
     id 11 
     name lowerback
     direction 0.0118782 0.999815 -0.0151555   
     length 2.15772   
     axis 0 0 0   XYZ
    dof rx ry rz
    limits (-20.0 45.0)
           (-30.0 30.0)
           (-30.0 30.0)
  end
  begin
     id 12 
     name upperback
     direction 0.00130825 0.999065 0.0432113   
     length 2.14863   
     axis 0 0 0   XYZ
    dof rx ry rz
    limits (-20.0 45.0)
           (-30.0 30.0)
           (-30.0 30.0)
  end
  begin
     id 13 
     name thorax
     direction -0.00347005 0.998773 0.0494011   
     length 2.14936   
     axis 0 0 0   XYZ
    dof rx ry rz
    limits (-20.0 45.0)
           (-30.0 30.0)
           (-30.0 30.0)
  end
  begin
     id 14 
     name lowerneck
     direction -0.0262159 0.99424 0.103921   
     length 1.69373   
     axis 0 0 0   XYZ
    dof rx ry rz
    limits (-20.0 45.0)
           (-30.0 30.0)
           (-30.0 30.0)
  end
  begin
     id 15 
     name upperneck
     direction 0.0353511 0.977394 -0.20845   
     length 1.70857   
     axis 0 0 0   XYZ
    dof rx ry rz
    limits (-20.0 45.0)
           (-30.0 30.0)
           (-30.0 30.0)
  end
  begin
     id 16
     name head
     direction 0.0139214 0.996594 -0.0812836  
     length 1.72777  
     axis 0 0 0   XYZ
    dof rx ry rz
    limits (-20.0 45.0)
           (-30.0 30.0)
           (-30.0 30.0)
  end
  begin
     id 17 
     name lclavicle
     direction 0.841247 0.537205 -0.0609508  
     length 3.55371  
     axis 0 0 0   XYZ
    dof ry rz
    limits (-20.0 10.0)
           (0.0 20.0)
  end
  begin
     id 18 
     name lhumerus
     direction 1 -4.48964e-011 1.60116e-018   
     length 4.91377   
     axis -180 -30 -90   XYZ
    dof rx ry rz
    limits (-60.0 90.0)
           (-90.0 90.0)
           (-90.0 90.0)
  end
  begin
     id 19
     name lradius
     direction 1 -4.48989e-011 -8.93847e-027   
     length 3.00291   
     axis -180 -30 -90   XYZ
    dof rx
    limits (-10.0 170.0)
  end
  begin
     id 20
     name lwrist
     direction 1 -4.48932e-011 -7.31504e-027   
     length 1.50145   
     axis 5.74121e-015 90 90   XYZ
    dof ry
    limits (-180.0 0.0)
 end
  begin
     id 21 
     name lhand
     direction 1 -4.48971e-011 -1.46301e-026   
     length 0.450922   
     axis 9.33524e-015 90 90   XYZ
    dof rx rz
    limits (-90.0 90.0)
           (-45.0 45.0)
  end
  begin
     id 22 
     name lfingers
     direction 1 -4.49039e-011 -2.92602e-026   
     length 0.363545   
     axis 1.86705e-014 90 90   XYZ
    dof rx
    limits (0.0 90.0)
  end
  begin
     id 23
     name lthumb
     direction 0.707107 -6.34941e-011 0.707107   
     length 0.52198   
     axis -90 45 2.85299e-015   XYZ
    dof rx rz
    limits (-45.0 45.0)
           (-45.0 45.0)
  end
  begin
     id 24 
     name rclavicle
     direction -0.825079 0.56158 -0.0622297   
     length 3.39909  
     axis 0 0 0   XYZ 
    dof ry rz
    limits (-10.0 20.0)
           (-20.0 0.0)
  end
  begin
     id 25 
     name rhumerus
     direction -1 -4.48965e-011 1.61691e-027  
     length 4.86725   
     axis -180 30 90   XYZ
    dof rx ry rz
    limits (-90.0 60.0)
           (-90.0 90.0)
           (-90.0 90.0)
  end
  begin
     id 26 
     name rradius
     direction -1 -4.48964e-011 -2.25776e-027   
     length 3.17144   
     axis -180 30 90   XYZ
    dof rx
    limits (-10.0 170.0)
  end
  begin
     id 27 
     name rwrist
     direction -1 -4.48961e-011 -7.31504e-027   
     length 1.58572   
     axis 5.74121e-015 -90 -90   XYZ
    dof ry
    limits (-180.0 0.0)
  end
  begin
     id 28
     name rhand
     direction -1 -4.49013e-011 -1.46301e-026   
     length 0.419368   
     axis 9.33524e-015 -90 -90   XYZ
    dof rx rz
    limits (-90.0 90.0)
           (-45.0 45.0)
  end
  begin
     id 29
     name rfingers
     direction -1 -4.489e-011 -2.92602e-026   
     length 0.338105   
     axis 1.86705e-014 -90 -90   XYZ
    dof rx
    limits (0.0 90.0)
  end
  begin
     id 30
     name rthumb
     direction -0.707107 -6.35022e-011 0.707107   
     length 0.485453   
     axis -90 -45 -2.85299e-015   XYZ
    dof rx rz
    limits (-45.0 45.0)
           (-45.0 45.0)
  end
:hierarchy
  begin
    root lhipjoint rhipjoint lowerback
    lhipjoint lfemur
    lfemur ltibia
    ltibia lfoot
    lfoot ltoes
    rhipjoint rfemur
    rfemur rtibia
    rtibia rfoot
    rfoot rtoes
    lowerback upperback
    upperback thorax
    thorax lowerneck lclavicle rclavicle
    lowerneck upperneck
    upperneck head
    lclavicle lhumerus
    lhumerus lradius
    lradius lwrist
    lwrist lhand lthumb
    lhand lfingers
    rclavicle rhumerus
    rhumerus rradius
    rradius rwrist
    rwrist rhand rthumb
    rhand rfingers
  end

#!OML:ASF H:\Swim 2\Project 1\Capture day 1\Session 1\male.ASF
:FULLY-SPECIFIED
:DEGREES
244
root 7.73189 8.89576 12.4279 84.5703 -1.55324 181.298
lowerback 14.7448 -0.515475 -0.955817
upperback -11.8734 -1.38678 1.85132
thorax -22.1088 -0.450279 3.25494
lowerneck -13.8838 -0.11274 -10.4317
upperneck 43.3832 -1.46825 6.4131
head 19.0311 -3.57308 4.03346
rclavicle -6.75868e-015 2.10712e-014
rhumerus 64.1998 -59.867 33.3701
rradius 35.416
rwrist -53.0444
rhand -6.08822 -30.7656
rfingers 7.12502
rthumb 19.7476 -59.7825
lclavicle -6.75868e-015 2.10712e-014
lhumerus 55.2289 51.1862 -25.4311
lradius 39.5362
lwrist 45.5066
lhand -9.31074 13.0484
lfingers 7.12502
lthumb 16.6473 42.3545
rfemur 23.9522 9.3565 24.711
rtibia 21.8862
rfoot 4.19613 -8.16007
rtoes 17.2241
lfemur 18.7539 -8.90225 -31.1489
ltibia 26.1001
lfoot -5.73161 9.70557
ltoes -18.1753
245
root 7.73207 8.89831 12.4358 84.6633 -1.61161 181.23
lowerback 14.6337 -0.492882 -1.01388
upperback -11.8992 -1.37712 1.84467
thorax -22.068 -0.440618 3.2753
lowerneck -13.8965 -0.0935219 -10.4177
upperneck 43.3639 -1.43579 6.4165
head 19.0166 -3.55194 4.03943
rclavicle 2.14687e-014 -1.33186e-014
rhumerus 64.5542 -59.8724 32.9707
rradius 35.3921
rwrist -52.8915
rhand -6.02936 -30.8053
rfingers 7.12502
rthumb 19.8041 -59.8163
lclavicle 2.14687e-014 -1.33186e-014
lhumerus 55.1883 51.1711 -25.4684
lradius 39.5551
lwrist 45.4971
lhand -9.28583 13.0565
lfingers 7.12502
lthumb 16.6713 42.3606
rfemur 24.2888 9.38616 24.6391
rtibia 21.7956
rfoot 4.41071 -7.56783
rtoes 17.7356
lfemur 18.3654 -8.89592 -31.1535
ltibia 25.9898
lfoot -5.67947 9.95036
ltoes -18.1071
246
root 7.73289 8.9012 12.4414 84.6762 -1.70239 181.179
lowerback 14.6005 -0.47211 -1.10963
upperback -11.9068 -1.37597 1.82791
thorax -22.0547 -0.427357 3.30982
lowerneck -13.8896 -0.0740881 -10.4119
upperneck 43.3433 -1.40665 6.42556
head 18.9964 -3.53391 4.04844
rclavicle 5.96354e-016 -8.44835e-015
rhumerus 64.8828 -59.8653 32.6076
rradius 35.3662
rwrist -52.7482
rhand -5.97055 -30.8463
rfingers 7.12502
rthumb 19.8607 -59.8515
lclavicle 5.96354e-016 -8.44835e-015
lhumerus 55.2333 51.1539 -25.4033
lradius 39.5621
lwrist 45.4313
lhand -9.24968 13.0582
lfingers 7.12502
lthumb 16.7061 42.3594
rfemur 24.6754 9.41204 24.5565
rtibia 21.7164
rfoot 4.35017 -7.17823
rtoes 18.9415
lfemur 18.1117 -8.89063 -31.2206
ltibia 25.8619
lfoot -5.63921 10.1898
ltoes -18.0439
247
root 7.73405 8.90421 12.4469 84.678 -1.79135 181.138
lowerback 14.576 -0.454606 -1.20434
upperback -11.9123 -1.37863 1.81079
thorax -22.044 -0.4157 3.34473
lowerneck -13.8817 -0.0554471 -10.4053
upperneck 43.3262 -1.37859 6.43192
head 18.9784 -3.51733 4.05568
rclavicle -2.06736e-014 2.26615e-014
rhumerus 65.1037 -59.8558 32.3647
rradius 35.3477
rwrist -52.6557
rhand -5.92087 -30.8877
rfingers 7.12502
rthumb 19.9084 -59.8879
lclavicle -2.06736e-014 2.26615e-014
lhumerus 55.3175 51.14 -25.2916
lradius 39.5647
lwrist 45.3392
lhand -9.20874 13.0562
lfingers 7.12502
lthumb 16.7455 42.354
rfemur 25.0237 9.43316 24.4799
rtibia 21.6495
rfoot 4.26098 -6.89444
rtoes 20.0049
lfemur 17.9126 -8.88601 -31.2954
ltibia 25.7299
lfoot -5.59978 10.4042
ltoes -17.9738
248
root 7.73555 8.9071 12.4523 84.6795 -1.87037 181.104
lowerback 14.5503 -0.441335 -1.28918
upperback -11.9184 -1.38467 1.7955
thorax -22.0332 -0.406934 3.37721
lowerneck -13.8746 -0.0380423 -10.3968
upperneck 43.3114 -1.35239 6.436
head 18.9623 -3.50194 4.06109
rclavicle 5.56597e-015 -1.63997e-014
rhumerus 65.2179 -59.8462 32.2388
rradius 35.3372
rwrist -52.6131
rhand -5.87877 -30.9299
rfingers 7.12502
rthumb 19.9489 -59.926
lclavicle 5.56597e-015 -1.63997e-014
lhumerus 55.4071 51.1291 -25.1726
lradius 39.5667
lwrist 45.2396
lhand -9.16602 13.0528
lfingers 7.12502
lthumb 16.7866 42.3471
rfemur 25.3161 9.44609 24.4123
rtibia 21.5921
rfoot 4.19377 -6.70031
rtoes 20.8023
lfemur 17.7514 -8.87729 -31.3644
ltibia 25.6085
lfoot -5.55235 10.5825
ltoes -17.9472
249
root 7.73732 8.90956 12.4574 84.6767 -1.93238 181.077
lowerback 14.5305 -0.433286 -1.35668
upperback -11.9242 -1.39314 1.78384
thorax -22.026 -0.401472 3.40494
lowerneck -13.8682 -0.0218953 -10.3877
upperneck 43.2979 -1.32818 6.43915
head 18.9476 -3.48765 4.06551
rclavicle -9.93923e-015 5.96354e-016
rhumerus 65.2386 -59.8398 32.2143
rradius 35.3341
rwrist -52.6155
rhand -5.84437 -30.9731
rfingers 7.12502
rthumb 19.982 -59.9657
lclavicle -9.93923e-015 5.96354e-016
lhumerus 55.5136 51.125 -25.0329
lradius 39.566
lwrist 45.122
lhand -9.11961 13.0452
lfingers 7.12502
lthumb 16.8313 42.3357
rfemur 25.552 9.45068 24.3606
rtibia 21.545
rfoot 4.15196 -6.59553
rtoes 21.336
lfemur 17.6284 -8.85965 -31.4193
ltibia 25.5081
lfoot -5.56896 10.7292
ltoes -17.8597
250
root 7.73918 8.91146 12.4624 84.6745 -1.96776 181.053
lowerback 14.5123 -0.429453 -1.39527
upperback -11.9304 -1.39951 1.77864
thorax -22.0212 -0.399047 3.42298
lowerneck -13.8648 -0.00940063 -10.3818
upperneck 43.2843 -1.3065 6.43837
head 18.9343 -3.47529 4.06813
rclavicle 8.94531e-015 -1.19271e-015
rhumerus 65.2184 -59.8399 32.2359
rradius 35.3341
rwrist -52.6384
rhand -5.81394 -31.0145
rfingers 7.12502
rthumb 20.0112 -60.0041
lclavicle 8.94531e-015 -1.19271e-015
lhumerus 55.5867 51.123 -24.928
lradius 39.5684
lwrist 45.0164
lhand -9.07386 13.0359
lfingers 7.12502
lthumb 16.8753 42.3227
rfemur 25.7194 9.44636 24.3302
rtibia 21.512
rfoot 4.18664 -6.55246
rtoes 21.4869
lfemur 17.539 -8.83636 -31.4519
ltibia 25.4324
lfoot -5.65492 10.8439
ltoes -17.7167
251
root 7.74106 8.91271 12.4662 84.6502 -1.99326 181.031
lowerback 14.5193 -0.428411 -1.422
upperback -11.9321 -1.40546 1.77506
thorax -22.0274 -0.397461 3.4365
lowerneck -13.8571 0.00031353 -10.3812
upperneck 43.2686 -1.28847 6.43821
head 18.9191 -3.46521 4.07121
rclavicle -9.93923e-016 -5.76476e-015
rhumerus 65.209 -59.8438 32.246
rradius 35.3337
rwrist -52.6614
rhand -5.78335 -31.0566
rfingers 7.12502
rthumb 20.0406 -60.0431
lclavicle -9.93923e-016 -5.76476e-015
lhumerus 55.6683 51.1274 -24.8088
lradius 39.5675
lwrist 44.8889
lhand -9.02154 13.0222
lfingers 7.12502
lthumb 16.9257 42.3047
rfemur 25.8407 9.43516 24.3069
rtibia 21.4988
rfoot 4.18571 -6.59911
rtoes 21.5775
lfemur 17.5081 -8.80402 -31.486
ltibia 25.3815
lfoot -5.71441 10.9194
ltoes -17.64
252
root 7.74293 8.91324 12.4687 84.5981 -2.01364 181.008
lowerback 14.5574 -0.428647 -1.4423
upperback -11.9272 -1.40983 1.77254
thorax -22.0459 -0.395214 3.44767
lowerneck -13.8446 0.00686499 -10.3882
upperneck 43.2483 -1.27365 6.43846
head 18.9003 -3.45716 4.07507
rclavicle -2.98177e-015 -4.96962e-015
rhumerus 65.2495 -59.8549 32.2032
rradius 35.3291
rwrist -52.6636
rhand -5.74974 -31.098
rfingers 7.12502
rthumb 20.0729 -60.0811
lclavicle -2.98177e-015 -4.96962e-015
lhumerus 55.7271 51.1325 -24.7094
lradius 39.5673
lwrist 44.7635
lhand -8.96791 13.0059
lfingers 7.12502
lthumb 16.9773 42.2839
rfemur 25.9184 9.42072 24.2868
rtibia 21.5118
rfoot 4.1137 -6.73256
rtoes 21.7239
lfemur 17.544 -8.76361 -31.5291
ltibia 25.3521
lfoot -5.73601 10.9525
ltoes -17.6397
253
root 7.74466 8.91308 12.4702 84.5361 -2.02571 180.98
lowerback 14.607 -0.429434 -1.45221
upperback -11.9198 -1.41149 1.77219
thorax -22.0692 -0.392921 3.45473
lowerneck -13.8322 0.0107715 -10.4025
upperneck 43.2264 -1.26177 6.4417
head 18.8811 -3.45088 4.08118
rclavicle 4.21423e-014 -2.48481e-014
rhumerus 65.3525 -59.8764 32.0889
rradius 35.3206
rwrist -52.6368
rhand -5.70963 -31.1404
rfingers 7.12502
rthumb 20.1115 -60.1194
lclavicle 4.21423e-014 -2.48481e-014
lhumerus 55.7786 51.15 -24.6112
lradius 39.5659
lwrist 44.6215
lhand -8.90409 12.99
lfingers 7.12502
lthumb 17.0388 42.2628
rfemur 25.9306 9.40958 24.2696
rtibia 21.5558
rfoot 3.99133 -6.92992
rtoes 21.9039
lfemur 17.6286 -8.71576 -31.5738
ltibia 25.3413
lfoot -5.66929 10.938
ltoes -17.7922
